<svg xmlns="http://www.w3.org/2000/svg" xmlns:xlink="http://www.w3.org/1999/xlink" width="300" zoomAndPan="magnify" viewBox="0 0 224.87999 66" height="88" preserveAspectRatio="xMidYMid meet" version="1.0"><defs><clipPath id="id1"><path d="M 0 0.0195312 L 224.761719 0.0195312 L 224.761719 65.980469 L 0 65.980469 Z M 0 0.0195312 " clip-rule="nonzero"/></clipPath><clipPath id="id2"><path d="M 54.027344 43.082031 L 65.222656 43.082031 L 65.222656 54.75 L 54.027344 54.75 Z M 54.027344 43.082031 " clip-rule="nonzero"/></clipPath><clipPath id="id3"><path d="M 69.855469 43.082031 L 72.257812 43.082031 L 72.257812 54.75 L 69.855469 54.75 Z M 69.855469 43.082031 " clip-rule="nonzero"/></clipPath><clipPath id="id4"><path d="M 79.109375 58.78125 L 83.742188 58.78125 L 83.742188 63.414062 L 79.109375 63.414062 Z M 79.109375 58.78125 " clip-rule="nonzero"/></clipPath><clipPath id="id5"><path d="M 77.503906 43.082031 L 87.609375 43.082031 L 87.609375 54.75 L 77.503906 54.75 Z M 77.503906 43.082031 " clip-rule="nonzero"/></clipPath><clipPath id="id6"><path d="M 85.71875 58.78125 L 89.515625 58.78125 L 89.515625 63.414062 L 85.71875 63.414062 Z M 85.71875 58.78125 " clip-rule="nonzero"/></clipPath><clipPath id="id7"><path d="M 91.601562 58.78125 L 94.8125 58.78125 L 94.8125 63.414062 L 91.601562 63.414062 Z M 91.601562 58.78125 " clip-rule="nonzero"/></clipPath><clipPath id="id8"><path d="M 90.773438 43.082031 L 102.382812 43.082031 L 102.382812 54.75 L 90.773438 54.75 Z M 90.773438 43.082031 " clip-rule="nonzero"/></clipPath><clipPath id="id9"><path d="M 96.671875 58.78125 L 99.210938 58.78125 L 99.210938 63.414062 L 96.671875 63.414062 Z M 96.671875 58.78125 " clip-rule="nonzero"/></clipPath><clipPath id="id10"><path d="M 103.984375 58.703125 L 107.417969 58.703125 L 107.417969 63.503906 L 103.984375 63.503906 Z M 103.984375 58.703125 " clip-rule="nonzero"/></clipPath><clipPath id="id11"><path d="M 109.578125 58.78125 L 112.957031 58.78125 L 112.957031 63.414062 L 109.578125 63.414062 Z M 109.578125 58.78125 " clip-rule="nonzero"/></clipPath><clipPath id="id12"><path d="M 105.847656 43 L 119.523438 43 L 119.523438 54.886719 L 105.847656 54.886719 Z M 105.847656 43 " clip-rule="nonzero"/></clipPath><clipPath id="id13"><path d="M 106 50 L 112 50 L 112 54.886719 L 106 54.886719 Z M 106 50 " clip-rule="nonzero"/></clipPath><clipPath id="id14"><path d="M 115.046875 58.78125 L 118.839844 58.78125 L 118.839844 63.414062 L 115.046875 63.414062 Z M 115.046875 58.78125 " clip-rule="nonzero"/></clipPath><clipPath id="id15"><path d="M 120.929688 58.78125 L 124.332031 58.78125 L 124.332031 63.414062 L 120.929688 63.414062 Z M 120.929688 58.78125 " clip-rule="nonzero"/></clipPath><clipPath id="id16"><path d="M 126.507812 58.730469 L 130.21875 58.730469 L 130.21875 63.476562 L 126.507812 63.476562 Z M 126.507812 58.730469 " clip-rule="nonzero"/></clipPath><clipPath id="id17"><path d="M 121.949219 43.082031 L 133.558594 43.082031 L 133.558594 54.75 L 121.949219 54.75 Z M 121.949219 43.082031 " clip-rule="nonzero"/></clipPath><clipPath id="id18"><path d="M 132.546875 58.78125 L 135.085938 58.78125 L 135.085938 63.414062 L 132.546875 63.414062 Z M 132.546875 58.78125 " clip-rule="nonzero"/></clipPath><clipPath id="id19"><path d="M 138.570312 58.78125 L 139.351562 58.78125 L 139.351562 63.496094 L 138.570312 63.496094 Z M 138.570312 58.78125 " clip-rule="nonzero"/></clipPath><clipPath id="id20"><path d="M 138.816406 43.082031 L 150.066406 43.082031 L 150.066406 54.75 L 138.816406 54.75 Z M 138.816406 43.082031 " clip-rule="nonzero"/></clipPath><clipPath id="id21"><path d="M 151.835938 43 L 166 43 L 166 54.894531 L 151.835938 54.894531 Z M 151.835938 43 " clip-rule="nonzero"/></clipPath><clipPath id="id22"><path d="M 164 37 L 170.84375 37 L 170.84375 43 L 164 43 Z M 164 37 " clip-rule="nonzero"/></clipPath><clipPath id="id23"><path d="M 97 1.355469 L 128 1.355469 L 128 32.988281 L 97 32.988281 Z M 97 1.355469 " clip-rule="nonzero"/></clipPath></defs><g clip-path="url(#id1)"><path fill="#ffffff" d="M 0 0.0195312 L 224.878906 0.0195312 L 224.878906 139.441406 L 0 139.441406 Z M 0 0.0195312 " fill-opacity="1" fill-rule="nonzero"/><path fill="#ffffff" d="M 0 0.0195312 L 224.878906 0.0195312 L 224.878906 65.980469 L 0 65.980469 Z M 0 0.0195312 " fill-opacity="1" fill-rule="nonzero"/><path fill="#ffffff" d="M 0 0.0195312 L 224.878906 0.0195312 L 224.878906 65.980469 L 0 65.980469 Z M 0 0.0195312 " fill-opacity="1" fill-rule="nonzero"/><path fill="#ffffff" d="M 0 0.0195312 L 224.878906 0.0195312 L 224.878906 65.980469 L 0 65.980469 Z M 0 0.0195312 " fill-opacity="1" fill-rule="nonzero"/></g><g clip-path="url(#id2)"><path fill="#000000" d="M 61.839844 49.683594 L 56.382812 49.683594 L 56.382812 52.652344 L 61.839844 52.652344 C 62.292969 52.652344 62.597656 52.574219 62.757812 52.417969 C 62.917969 52.265625 62.996094 51.992188 62.996094 51.601562 L 62.996094 50.71875 C 62.996094 50.328125 62.917969 50.058594 62.757812 49.90625 C 62.597656 49.757812 62.292969 49.683594 61.839844 49.683594 M 61.839844 44.980469 L 56.382812 44.980469 L 56.382812 47.761719 L 61.839844 47.761719 C 62.253906 47.761719 62.539062 47.699219 62.699219 47.574219 C 62.859375 47.449219 62.9375 47.230469 62.9375 46.921875 L 62.9375 45.816406 C 62.9375 45.515625 62.859375 45.300781 62.699219 45.171875 C 62.539062 45.042969 62.253906 44.980469 61.839844 44.980469 M 54.03125 54.75 L 54.03125 43.082031 L 62.839844 43.082031 C 63.652344 43.082031 64.238281 43.261719 64.601562 43.621094 C 64.964844 43.980469 65.144531 44.554688 65.144531 45.34375 L 65.144531 46.765625 C 65.144531 47.328125 64.992188 47.773438 64.6875 48.109375 C 64.382812 48.445312 63.945312 48.652344 63.375 48.730469 C 63.964844 48.820312 64.421875 49.058594 64.742188 49.449219 C 65.0625 49.839844 65.222656 50.347656 65.222656 50.972656 L 65.222656 52.464844 C 65.222656 53.234375 64.972656 53.808594 64.472656 54.183594 C 63.976562 54.5625 63.214844 54.75 62.199219 54.75 Z M 54.03125 54.75 " fill-opacity="1" fill-rule="nonzero"/></g><g clip-path="url(#id3)"><path fill="#000000" d="M 69.855469 43.082031 L 72.257812 43.082031 L 72.257812 54.75 L 69.855469 54.75 Z M 69.855469 43.082031 " fill-opacity="1" fill-rule="nonzero"/></g><g clip-path="url(#id4)"><path fill="#000000" d="M 83.058594 61.378906 C 83.023438 60.734375 82.984375 59.957031 82.988281 59.378906 L 82.96875 59.378906 C 82.816406 59.921875 82.625 60.5 82.398438 61.136719 L 81.59375 63.386719 L 81.152344 63.386719 L 80.417969 61.179688 C 80.203125 60.527344 80.019531 59.929688 79.890625 59.378906 L 79.878906 59.378906 C 79.863281 59.957031 79.832031 60.734375 79.789062 61.425781 L 79.667969 63.414062 L 79.109375 63.414062 L 79.425781 58.78125 L 80.175781 58.78125 L 80.949219 61.019531 C 81.136719 61.59375 81.292969 62.101562 81.40625 62.582031 L 81.425781 62.582031 C 81.542969 62.113281 81.703125 61.605469 81.90625 61.019531 L 82.714844 58.78125 L 83.460938 58.78125 L 83.742188 63.414062 L 83.171875 63.414062 Z M 83.058594 61.378906 " fill-opacity="1" fill-rule="nonzero"/></g><g clip-path="url(#id5)"><path fill="#000000" d="M 77.503906 54.75 L 77.503906 43.082031 L 79.898438 43.082031 L 79.898438 52.550781 L 87.609375 52.550781 L 87.609375 54.75 Z M 77.503906 54.75 " fill-opacity="1" fill-rule="nonzero"/></g><g clip-path="url(#id6)"><path fill="#000000" d="M 88.285156 61.488281 L 87.839844 60.15625 C 87.738281 59.851562 87.671875 59.578125 87.605469 59.308594 L 87.589844 59.308594 C 87.523438 59.585938 87.449219 59.867188 87.363281 60.148438 L 86.917969 61.488281 Z M 86.796875 61.957031 L 86.324219 63.414062 L 85.71875 63.414062 L 87.261719 58.78125 L 87.96875 58.78125 L 89.515625 63.414062 L 88.890625 63.414062 L 88.40625 61.957031 Z M 86.796875 61.957031 " fill-opacity="1" fill-rule="nonzero"/></g><g clip-path="url(#id7)"><path fill="#000000" d="M 91.601562 58.78125 L 92.1875 58.78125 L 92.1875 61.015625 L 92.207031 61.015625 C 92.332031 60.835938 92.453125 60.671875 92.566406 60.519531 L 93.957031 58.78125 L 94.683594 58.78125 L 93.039062 60.746094 L 94.8125 63.414062 L 94.117188 63.414062 L 92.621094 61.136719 L 92.1875 61.648438 L 92.1875 63.414062 L 91.601562 63.414062 Z M 91.601562 58.78125 " fill-opacity="1" fill-rule="nonzero"/></g><g clip-path="url(#id8)"><path fill="#000000" d="M 99.996094 43.082031 L 99.996094 51.996094 C 99.996094 52.300781 99.75 52.550781 99.441406 52.550781 L 93.726562 52.550781 C 93.417969 52.550781 93.167969 52.300781 93.167969 51.996094 L 93.167969 43.082031 L 90.773438 43.082031 L 90.773438 51.988281 C 90.773438 53.054688 90.949219 53.78125 91.304688 54.167969 C 91.65625 54.554688 92.332031 54.75 93.324219 54.75 L 99.832031 54.75 C 100.832031 54.75 101.507812 54.554688 101.859375 54.167969 C 102.210938 53.78125 102.382812 53.054688 102.382812 51.988281 L 102.382812 43.082031 Z M 99.996094 43.082031 " fill-opacity="1" fill-rule="nonzero"/></g><g clip-path="url(#id9)"><path fill="#000000" d="M 99.011719 61.242188 L 97.253906 61.242188 L 97.253906 62.910156 L 99.210938 62.910156 L 99.210938 63.414062 L 96.671875 63.414062 L 96.671875 58.78125 L 99.109375 58.78125 L 99.109375 59.28125 L 97.253906 59.28125 L 97.253906 60.746094 L 99.011719 60.746094 Z M 99.011719 61.242188 " fill-opacity="1" fill-rule="nonzero"/></g><g clip-path="url(#id10)"><path fill="#000000" d="M 107.414062 63.285156 C 107.199219 63.394531 106.769531 63.503906 106.21875 63.503906 C 104.945312 63.503906 103.984375 62.675781 103.984375 61.148438 C 103.984375 59.691406 104.945312 58.703125 106.347656 58.703125 C 106.910156 58.703125 107.265625 58.828125 107.417969 58.910156 L 107.277344 59.402344 C 107.058594 59.292969 106.742188 59.207031 106.367188 59.207031 C 105.308594 59.207031 104.601562 59.90625 104.601562 61.128906 C 104.601562 62.269531 105.238281 63 106.339844 63 C 106.695312 63 107.058594 62.925781 107.292969 62.808594 Z M 107.414062 63.285156 " fill-opacity="1" fill-rule="nonzero"/></g><g clip-path="url(#id11)"><path fill="#000000" d="M 110.164062 58.78125 L 110.164062 60.71875 L 112.363281 60.71875 L 112.363281 58.78125 L 112.957031 58.78125 L 112.957031 63.414062 L 112.363281 63.414062 L 112.363281 61.242188 L 110.164062 61.242188 L 110.164062 63.414062 L 109.578125 63.414062 L 109.578125 58.78125 Z M 110.164062 58.78125 " fill-opacity="1" fill-rule="nonzero"/></g><g clip-path="url(#id12)"><path fill="#000000" d="M 114.035156 48.667969 L 112.476562 47.003906 L 111.953125 46.445312 L 111.949219 46.445312 L 109.742188 43.785156 C 109.371094 43.339844 108.820312 43.082031 108.242188 43.082031 L 105.984375 43.082031 L 110.949219 48.753906 L 112.367188 50.222656 L 112.84375 50.792969 L 112.980469 50.9375 L 112.96875 50.945312 L 115.550781 54.046875 C 115.921875 54.492188 116.46875 54.75 117.046875 54.75 L 119.382812 54.75 Z M 114.035156 48.667969 " fill-opacity="1" fill-rule="nonzero"/></g><g clip-path="url(#id13)"><path fill="#f4c500" d="M 106.074219 54.75 L 107.933594 54.75 C 108.539062 54.75 109.109375 54.464844 109.480469 53.984375 L 111.101562 51.875 L 109.660156 50.335938 Z M 106.074219 54.75 " fill-opacity="1" fill-rule="nonzero"/></g><path fill="#f4c500" d="M 118.324219 43.082031 L 116.515625 43.082031 C 115.917969 43.082031 115.355469 43.355469 114.984375 43.824219 L 113.734375 45.410156 L 115.128906 46.898438 Z M 118.324219 43.082031 " fill-opacity="1" fill-rule="nonzero"/><path fill="#000000" d="M 111.953125 46.449219 L 111.949219 46.445312 Z M 111.953125 46.449219 " fill-opacity="1" fill-rule="nonzero"/><path fill="#000000" d="M 112.84375 50.792969 L 112.96875 50.945312 L 112.980469 50.9375 Z M 112.84375 50.792969 " fill-opacity="1" fill-rule="nonzero"/><g clip-path="url(#id14)"><path fill="#000000" d="M 117.609375 61.488281 L 117.164062 60.15625 C 117.066406 59.851562 116.996094 59.578125 116.929688 59.308594 L 116.917969 59.308594 C 116.847656 59.585938 116.773438 59.867188 116.6875 60.148438 L 116.242188 61.488281 Z M 116.121094 61.957031 L 115.652344 63.414062 L 115.046875 63.414062 L 116.585938 58.78125 L 117.292969 58.78125 L 118.839844 63.414062 L 118.214844 63.414062 L 117.730469 61.957031 Z M 116.121094 61.957031 " fill-opacity="1" fill-rule="nonzero"/></g><g clip-path="url(#id15)"><path fill="#000000" d="M 120.929688 63.414062 L 120.929688 58.78125 L 121.566406 58.78125 L 123.019531 61.125 C 123.355469 61.667969 123.621094 62.15625 123.835938 62.628906 L 123.847656 62.625 C 123.796875 62.003906 123.78125 61.441406 123.78125 60.71875 L 123.78125 58.78125 L 124.332031 58.78125 L 124.332031 63.414062 L 123.742188 63.414062 L 122.300781 61.0625 C 121.984375 60.546875 121.683594 60.019531 121.453125 59.515625 L 121.433594 59.523438 C 121.464844 60.105469 121.480469 60.664062 121.480469 61.433594 L 121.480469 63.414062 Z M 120.929688 63.414062 " fill-opacity="1" fill-rule="nonzero"/></g><g clip-path="url(#id16)"><path fill="#000000" d="M 130.21875 63.222656 C 129.957031 63.320312 129.441406 63.476562 128.832031 63.476562 C 128.144531 63.476562 127.582031 63.296875 127.140625 62.863281 C 126.75 62.476562 126.507812 61.855469 126.507812 61.132812 C 126.515625 59.746094 127.441406 58.730469 128.957031 58.730469 C 129.480469 58.730469 129.890625 58.847656 130.085938 58.945312 L 129.945312 59.433594 C 129.703125 59.324219 129.402344 59.234375 128.945312 59.234375 C 127.84375 59.234375 127.125 59.9375 127.125 61.105469 C 127.125 62.285156 127.816406 62.980469 128.871094 62.980469 C 129.253906 62.980469 129.515625 62.925781 129.648438 62.855469 L 129.648438 61.46875 L 128.730469 61.46875 L 128.730469 60.988281 L 130.21875 60.988281 Z M 130.21875 63.222656 " fill-opacity="1" fill-rule="nonzero"/></g><g clip-path="url(#id17)"><path fill="#000000" d="M 131.171875 43.082031 L 131.171875 52 C 131.171875 52.304688 130.921875 52.554688 130.617188 52.554688 L 124.902344 52.554688 C 124.59375 52.554688 124.34375 52.304688 124.34375 52 L 124.34375 43.082031 L 121.949219 43.082031 L 121.949219 51.992188 C 121.949219 53.058594 122.125 53.785156 122.480469 54.171875 C 122.832031 54.558594 123.507812 54.75 124.5 54.75 L 131.007812 54.75 C 132.007812 54.75 132.683594 54.558594 133.035156 54.171875 C 133.386719 53.785156 133.558594 53.058594 133.558594 51.992188 L 133.558594 43.082031 Z M 131.171875 43.082031 " fill-opacity="1" fill-rule="nonzero"/></g><g clip-path="url(#id18)"><path fill="#000000" d="M 134.886719 61.242188 L 133.128906 61.242188 L 133.128906 62.910156 L 135.085938 62.910156 L 135.085938 63.414062 L 132.546875 63.414062 L 132.546875 58.78125 L 134.984375 58.78125 L 134.984375 59.28125 L 133.128906 59.28125 L 133.128906 60.746094 L 134.886719 60.746094 Z M 134.886719 61.242188 " fill-opacity="1" fill-rule="nonzero"/></g><g clip-path="url(#id19)"><path fill="#000000" d="M 138.734375 62.085938 L 138.640625 58.78125 L 139.277344 58.78125 L 139.183594 62.085938 Z M 138.570312 63.070312 C 138.570312 62.820312 138.734375 62.644531 138.960938 62.644531 C 139.199219 62.644531 139.351562 62.820312 139.351562 63.070312 C 139.351562 63.3125 139.199219 63.496094 138.960938 63.496094 C 138.726562 63.496094 138.570312 63.308594 138.570312 63.070312 " fill-opacity="1" fill-rule="nonzero"/></g><g clip-path="url(#id20)"><path fill="#000000" d="M 141.167969 48.34375 L 141.167969 45.097656 L 146.542969 45.097656 C 146.960938 45.097656 147.242188 45.167969 147.394531 45.304688 C 147.546875 45.441406 147.625 45.675781 147.625 46.015625 L 147.625 47.417969 C 147.625 47.761719 147.546875 48.003906 147.394531 48.140625 C 147.242188 48.273438 146.960938 48.34375 146.542969 48.34375 Z M 150.0625 54.742188 L 149.527344 53.367188 L 148.34375 50.339844 L 148.316406 50.277344 C 148.773438 50.195312 149.128906 50.042969 149.378906 49.800781 C 149.742188 49.4375 149.925781 48.867188 149.925781 48.078125 L 149.925781 45.34375 C 149.925781 44.546875 149.742188 43.972656 149.378906 43.613281 C 149.011719 43.257812 148.421875 43.082031 147.605469 43.082031 L 138.816406 43.082031 L 138.816406 54.742188 L 141.167969 54.742188 L 141.167969 50.339844 L 145.855469 50.339844 L 147.53125 54.695312 L 147.550781 54.742188 L 150.066406 54.75 Z M 150.0625 54.742188 " fill-opacity="1" fill-rule="nonzero"/></g><g clip-path="url(#id21)"><path fill="#000000" d="M 157.316406 54.753906 L 157.316406 49.53125 L 151.976562 43.082031 L 155.167969 43.082031 L 158.699219 47.566406 L 162.242188 43.082031 L 165.050781 43.082031 L 159.730469 49.464844 L 159.730469 54.753906 Z M 157.316406 54.753906 " fill-opacity="1" fill-rule="nonzero"/></g><path fill="#000000" d="M 166.960938 41.4375 L 166.960938 40.085938 L 167.453125 40.085938 C 167.597656 40.085938 167.710938 40.097656 167.789062 40.128906 C 167.867188 40.160156 167.949219 40.21875 168.035156 40.300781 C 168.121094 40.390625 168.246094 40.554688 168.414062 40.804688 L 168.84375 41.4375 L 169.382812 41.4375 L 168.816406 40.609375 C 168.71875 40.464844 168.609375 40.335938 168.480469 40.21875 C 168.417969 40.164062 168.328125 40.105469 168.207031 40.050781 C 168.503906 40.011719 168.726562 39.921875 168.882812 39.777344 C 169.039062 39.636719 169.113281 39.449219 169.113281 39.222656 C 169.113281 39.046875 169.070312 38.894531 168.976562 38.761719 C 168.886719 38.628906 168.769531 38.535156 168.628906 38.476562 C 168.484375 38.421875 168.265625 38.390625 167.964844 38.390625 L 166.535156 38.390625 L 166.535156 41.4375 Z M 166.960938 38.730469 L 167.980469 38.730469 C 168.210938 38.730469 168.382812 38.773438 168.5 38.859375 C 168.617188 38.949219 168.675781 39.070312 168.675781 39.222656 C 168.675781 39.328125 168.644531 39.421875 168.582031 39.503906 C 168.523438 39.582031 168.441406 39.640625 168.335938 39.679688 C 168.230469 39.71875 168.078125 39.734375 167.878906 39.734375 L 166.960938 39.734375 Z M 166.960938 38.730469 " fill-opacity="1" fill-rule="nonzero"/><path fill="#000000" d="M 166.960938 41.4375 L 167.027344 41.4375 L 167.027344 40.148438 L 167.453125 40.148438 C 167.59375 40.148438 167.699219 40.164062 167.765625 40.191406 C 167.832031 40.214844 167.910156 40.265625 167.988281 40.347656 C 168.070312 40.429688 168.195312 40.59375 168.359375 40.839844 L 168.808594 41.5 L 169.503906 41.5 L 168.871094 40.570312 C 168.769531 40.425781 168.65625 40.292969 168.523438 40.171875 C 168.453125 40.109375 168.359375 40.050781 168.234375 39.992188 L 168.207031 40.050781 L 168.214844 40.117188 C 168.519531 40.074219 168.757812 39.980469 168.925781 39.828125 C 169.09375 39.671875 169.179688 39.464844 169.179688 39.222656 C 169.179688 39.035156 169.128906 38.867188 169.03125 38.722656 C 168.933594 38.582031 168.804688 38.476562 168.652344 38.417969 C 168.496094 38.355469 168.269531 38.328125 167.964844 38.328125 L 166.46875 38.328125 L 166.46875 41.5 L 167.027344 41.5 L 167.027344 41.4375 L 166.960938 41.4375 L 166.960938 41.371094 L 166.597656 41.371094 L 166.597656 38.457031 L 167.964844 38.457031 C 168.261719 38.457031 168.476562 38.488281 168.605469 38.539062 C 168.734375 38.589844 168.839844 38.675781 168.925781 38.796875 C 169.007812 38.917969 169.050781 39.058594 169.050781 39.222656 C 169.050781 39.4375 168.980469 39.601562 168.839844 39.730469 C 168.695312 39.863281 168.484375 39.949219 168.199219 39.988281 L 167.976562 40.015625 L 168.179688 40.109375 C 168.296875 40.164062 168.382812 40.21875 168.4375 40.269531 C 168.5625 40.378906 168.667969 40.507812 168.761719 40.644531 L 169.257812 41.371094 L 168.878906 41.371094 L 168.464844 40.765625 C 168.300781 40.515625 168.171875 40.351562 168.082031 40.257812 C 167.992188 40.167969 167.902344 40.101562 167.8125 40.070312 C 167.71875 40.035156 167.601562 40.019531 167.453125 40.019531 L 166.894531 40.019531 L 166.894531 41.4375 L 166.960938 41.4375 L 166.960938 41.371094 Z M 166.960938 38.730469 L 166.960938 38.792969 L 167.980469 38.792969 C 168.203125 38.792969 168.363281 38.835938 168.460938 38.914062 C 168.5625 38.988281 168.609375 39.085938 168.609375 39.222656 C 168.609375 39.316406 168.582031 39.394531 168.53125 39.464844 C 168.476562 39.535156 168.40625 39.585938 168.3125 39.617188 C 168.222656 39.652344 168.074219 39.671875 167.878906 39.671875 L 167.027344 39.671875 L 167.027344 38.730469 L 166.960938 38.730469 L 166.960938 38.792969 L 166.960938 38.730469 L 166.894531 38.730469 L 166.894531 39.800781 L 167.878906 39.800781 C 168.082031 39.800781 168.242188 39.78125 168.359375 39.742188 C 168.472656 39.699219 168.566406 39.632812 168.632812 39.542969 C 168.703125 39.453125 168.738281 39.34375 168.738281 39.222656 C 168.738281 39.054688 168.671875 38.90625 168.539062 38.808594 C 168.40625 38.707031 168.21875 38.664062 167.980469 38.664062 L 166.894531 38.664062 L 166.894531 38.730469 Z M 166.960938 38.730469 " fill-opacity="1" fill-rule="nonzero"/><g clip-path="url(#id22)"><path fill="#000000" d="M 167.75 42.410156 C 166.394531 42.410156 165.292969 41.332031 165.292969 40 C 165.292969 38.667969 166.394531 37.59375 167.75 37.59375 C 169.105469 37.59375 170.203125 38.667969 170.203125 40 C 170.203125 41.332031 169.105469 42.410156 167.75 42.410156 M 167.75 37.148438 C 166.152344 37.148438 164.859375 38.417969 164.859375 39.984375 C 164.859375 41.550781 166.152344 42.820312 167.75 42.820312 C 169.347656 42.820312 170.640625 41.550781 170.640625 39.984375 C 170.640625 38.417969 169.347656 37.148438 167.75 37.148438 " fill-opacity="1" fill-rule="nonzero"/><path fill="#000000" d="M 167.75 42.410156 L 167.75 42.34375 C 167.089844 42.34375 166.492188 42.082031 166.058594 41.65625 C 165.625 41.234375 165.359375 40.648438 165.359375 40 C 165.359375 39.351562 165.625 38.769531 166.058594 38.34375 C 166.492188 37.917969 167.089844 37.65625 167.75 37.65625 C 168.410156 37.65625 169.007812 37.917969 169.441406 38.34375 C 169.871094 38.769531 170.140625 39.351562 170.140625 40 C 170.140625 40.648438 169.871094 41.234375 169.441406 41.65625 C 169.007812 42.082031 168.410156 42.34375 167.75 42.34375 L 167.75 42.472656 C 168.445312 42.472656 169.074219 42.195312 169.53125 41.75 C 169.988281 41.300781 170.269531 40.683594 170.269531 40 C 170.269531 39.316406 169.988281 38.699219 169.53125 38.25 C 169.074219 37.804688 168.445312 37.527344 167.75 37.527344 C 167.054688 37.527344 166.425781 37.804688 165.96875 38.25 C 165.511719 38.699219 165.230469 39.316406 165.230469 40 C 165.230469 40.683594 165.511719 41.300781 165.96875 41.75 C 166.425781 42.195312 167.054688 42.472656 167.75 42.472656 Z M 167.75 37.148438 L 167.75 37.085938 C 166.933594 37.085938 166.195312 37.410156 165.660156 37.933594 C 165.125 38.457031 164.792969 39.183594 164.792969 39.984375 C 164.792969 40.785156 165.125 41.511719 165.660156 42.035156 C 166.195312 42.5625 166.933594 42.886719 167.75 42.886719 C 168.566406 42.886719 169.304688 42.5625 169.839844 42.035156 C 170.375 41.511719 170.707031 40.785156 170.707031 39.984375 C 170.707031 39.183594 170.375 38.457031 169.839844 37.933594 C 169.304688 37.410156 168.566406 37.085938 167.75 37.085938 L 167.75 37.214844 C 168.53125 37.214844 169.238281 37.523438 169.75 38.027344 C 170.261719 38.527344 170.574219 39.21875 170.574219 39.984375 C 170.574219 40.75 170.261719 41.441406 169.75 41.945312 C 169.238281 42.445312 168.53125 42.753906 167.75 42.753906 C 166.96875 42.753906 166.261719 42.445312 165.75 41.945312 C 165.238281 41.441406 164.921875 40.75 164.921875 39.984375 C 164.921875 39.21875 165.238281 38.527344 165.75 38.027344 C 166.261719 37.523438 166.96875 37.214844 167.75 37.214844 Z M 167.75 37.148438 " fill-opacity="1" fill-rule="nonzero"/></g><g clip-path="url(#id23)"><path fill="#000000" d="M 99.234375 17.234375 C 99.210938 24.585938 105.039062 30.535156 112.3125 30.585938 C 119.625 30.632812 125.582031 24.703125 125.636719 17.324219 C 125.691406 10.023438 119.777344 3.964844 112.566406 3.933594 C 105.121094 3.902344 99.261719 9.75 99.234375 17.234375 M 112.441406 2 C 120.734375 1.9375 127.542969 8.742188 127.597656 17.136719 C 127.652344 25.605469 120.855469 32.53125 112.445312 32.582031 C 104.152344 32.632812 97.234375 25.734375 97.242188 17.304688 C 97.253906 7.914062 105.054688 1.710938 112.441406 2 " fill-opacity="1" fill-rule="nonzero"/></g><path fill="#000000" d="M 107.957031 14.222656 L 118.792969 14.222656 C 119.191406 12.105469 117.8125 10.035156 115.523438 9.871094 C 113.03125 9.691406 110.515625 9.828125 107.957031 9.828125 Z M 106.015625 16.195312 L 106.015625 7.878906 C 108.386719 7.878906 110.710938 7.863281 113.039062 7.886719 C 114.074219 7.898438 115.125 7.882812 116.136719 8.066406 C 119.167969 8.609375 121.132812 11.238281 120.816406 14.191406 C 120.441406 17.703125 118.398438 19.613281 115.058594 19.597656 C 112.730469 19.585938 110.398438 19.59375 107.988281 19.59375 L 107.988281 24.628906 C 111.03125 24.628906 114.050781 24.78125 117.046875 24.582031 C 119.390625 24.425781 120.703125 22.125 120.082031 19.8125 C 119.964844 19.367188 119.84375 18.925781 119.699219 18.386719 C 120.273438 18.171875 120.800781 17.976562 121.316406 17.785156 C 123.421875 21.246094 121.539062 26.578125 116.328125 26.605469 C 113.199219 26.621094 110.066406 26.589844 106.9375 26.574219 C 106.660156 26.574219 106.382812 26.542969 106.039062 26.523438 L 106.039062 17.625 C 106.472656 17.625 106.886719 17.625 107.304688 17.625 C 109.929688 17.636719 112.558594 17.648438 115.183594 17.660156 C 116.300781 17.667969 117.304688 17.425781 118.171875 16.195312 Z M 106.015625 16.195312 " fill-opacity="1" fill-rule="nonzero"/></svg>